P2
# feep.pgm
10 10
8
0 0 0 0 0 0 0 0 0 0 
0 5 5 5 3 0 0 0 0 0
0 3 3 4 5 0 0 8 0 0
0 4 4 3 5 0 8 8 8 0
0 0 0 0 0 8 8 8 8 8
0 0 0 0 0 0 0 3 0 0
0 0 0 0 0 0 4 3 4 0
7 7 0 0 0 4 5 5 5 5
7 7 0 0 0 0 0 0 0 0
0 0 0 0 0 0 1 2 3 0
