P2
# binary.pgm
14 17
255
255 255 255 255 0 0 255 255 255 255 255 255 255 255 
255 255 255 255 255 255 255 0 0 0 255 255 255 255 
255 255 255 255 255 255 255 255 255 255 0 0 0 255 
255 255 255 255 255 255 255 255 255 255 255 255 255 255 
0 0 255 255 255 255 255 255 255 255 255 255 255 255 
255 255 255 0 0 255 255 255 255 255 255 255 255 255 
255 255 255 255 255 255 0 0 0 0 255 255 255 255 
255 255 255 255 255 255 255 255 255 255 0 255 255 255 
255 255 255 255 255 255 255 255 255 255 255 255 255 255 
255 255 255 255 255 255 255 255 255 255 255 255 255 255 
255 255 255 255 255 255 255 255 255 255 255 255 255 255 
255 255 255 255 255 255 255 255 255 255 255 0 0 0 
255 255 255 255 255 0 255 255 255 255 255 255 255 255 
255 255 0 255 255 255 255 255 0 0 255 255 255 255 
255 255 255 0 0 255 255 255 255 255 0 255 255 255 
255 255 255 255 255 255 255 255 255 255 255 255 255 255 
255 255 255 255 255 255 255 255 255 255 255 255 255 255 
